<?xml version="1.0" standalone="no"?>
<!DOCTYPE svg PUBLIC "-//W3C//DTD SVG 20010904//EN"
 "http://www.w3.org/TR/2001/REC-SVG-20010904/DTD/svg10.dtd">
<svg version="1.0" xmlns="http://www.w3.org/2000/svg"
 width="448.000000pt" height="402.000000pt" viewBox="0 0 448.000000 402.000000"
 preserveAspectRatio="xMidYMid meet">

<g transform="translate(0.000000,402.000000) scale(0.100000,-0.100000)"
fill="#000000" stroke="none">
<path d="M2043 3909 c-176 -19 -385 -108 -535 -229 -324 -261 -467 -696 -358
-1090 28 -98 104 -256 171 -351 30 -42 234 -279 454 -526 l399 -449 161 181
c682 764 744 841 815 1011 66 159 75 208 75 414 -1 184 -15 257 -79 409 -92
219 -286 421 -511 534 -81 40 -242 85 -347 97 -108 11 -127 11 -245 -1z m290
-154 c174 -30 329 -110 461 -236 196 -187 291 -407 289 -669 -2 -255 -97 -477
-279 -651 -176 -167 -385 -250 -628 -250 -274 1 -480 90 -670 292 -94 99 -153
199 -195 323 -55 167 -64 304 -31 466 33 163 85 273 189 402 207 256 538 380
864 323z"/>
<path d="M1940 3596 c-36 -7 -76 -18 -89 -25 -15 -8 -38 -11 -62 -7 -34 5 -41
3 -74 -31 -20 -21 -39 -50 -42 -66 -3 -17 -16 -33 -29 -39 -12 -6 -40 -38 -61
-72 -31 -50 -38 -71 -39 -116 -1 -30 -4 -78 -8 -107 -4 -38 -2 -53 8 -56 8 -3
31 -31 51 -62 51 -77 76 -88 169 -76 40 5 82 14 94 20 33 17 69 13 86 -10 10
-14 22 -20 35 -16 40 10 56 -16 54 -84 -2 -51 1 -67 17 -84 23 -25 60 -127 60
-164 -1 -14 -7 -37 -15 -51 -21 -37 -18 -94 10 -160 14 -33 25 -70 25 -83 0
-13 11 -46 25 -72 14 -26 29 -64 33 -84 7 -32 12 -36 42 -39 88 -9 131 18 223
143 54 73 58 82 53 118 -7 41 -5 43 92 128 20 17 23 26 17 62 -3 23 -13 63
-21 88 -13 42 -13 51 2 88 10 25 41 64 79 99 63 58 145 173 145 204 0 26 -12
28 -62 10 -58 -21 -92 -8 -101 37 -4 20 -16 35 -32 43 -17 8 -38 37 -63 87
-20 42 -54 105 -74 141 -21 36 -38 77 -38 91 0 26 -2 27 -57 26 -41 0 -71 7
-102 23 l-45 22 -17 -21 c-10 -12 -19 -27 -22 -34 -3 -8 -20 -4 -58 16 -30 15
-67 32 -82 37 -26 9 -28 13 -22 41 5 22 3 34 -6 40 -16 10 -15 10 -99 -5z"/>
<path d="M2743 2545 c-38 -16 -53 -42 -53 -88 0 -19 -7 -53 -15 -77 -18 -50
-6 -83 28 -78 15 2 26 15 35 43 8 22 27 73 43 112 16 40 29 79 29 88 0 18 -25
19 -67 0z"/>
<path d="M3288 919 c-21 -12 -38 -69 -38 -131 0 -41 -3 -48 -20 -48 -15 0 -20
-7 -20 -25 0 -18 5 -25 20 -25 18 0 20 -7 20 -85 l0 -85 30 0 30 0 0 85 0 85
35 0 c31 0 35 3 35 25 0 22 -4 25 -35 25 l-35 0 0 58 c0 63 11 82 47 82 22 0
48 31 36 44 -10 10 -86 6 -105 -5z"/>
<path d="M1760 722 l0 -202 30 0 29 0 3 126 3 126 137 -131 c75 -72 139 -131
142 -131 3 0 6 90 6 200 l0 200 -30 0 -30 0 0 -130 c0 -71 -3 -130 -7 -130 -4
0 -70 62 -145 137 l-138 138 0 -203z"/>
<path d="M2928 737 c-43 -100 -80 -190 -84 -199 -5 -15 0 -18 24 -18 27 0 32
5 48 45 l17 45 71 0 72 0 15 -42 c14 -39 19 -43 52 -46 35 -3 36 -2 28 20 -28
71 -154 364 -159 370 -4 4 -42 -75 -84 -175z m121 -64 c1 -9 -14 -13 -44 -13
-25 0 -45 4 -45 9 0 4 10 32 22 62 l22 53 22 -50 c13 -27 23 -55 23 -61z"/>
<path d="M183 897 c-125 -46 -164 -225 -70 -325 51 -55 141 -75 212 -47 51 19
49 16 34 49 -11 23 -13 23 -45 10 -80 -34 -162 6 -184 88 -30 111 71 207 173
165 35 -15 37 -15 47 3 16 30 12 40 -25 56 -41 17 -97 17 -142 1z"/>
<path d="M3660 827 c0 -27 20 -40 46 -30 26 10 13 48 -18 51 -24 3 -28 0 -28
-21z"/>
<path d="M2510 790 c0 -43 -3 -50 -20 -50 -13 0 -20 -7 -20 -20 0 -13 7 -20
20 -20 19 0 20 -7 20 -90 l0 -90 30 0 29 0 3 88 c3 87 3 87 31 90 19 2 27 9
27 23 0 14 -7 19 -30 19 -29 0 -30 1 -30 50 0 49 -1 50 -30 50 -29 0 -30 -1
-30 -50z"/>
<path d="M464 716 c-29 -29 -34 -41 -34 -80 0 -57 14 -88 50 -109 35 -21 72
-22 110 -2 17 9 30 11 30 5 0 -5 14 -10 30 -10 l30 0 0 110 c0 110 0 110 -24
110 -13 0 -26 -5 -28 -12 -3 -8 -11 -7 -28 5 -14 9 -42 17 -63 17 -31 0 -46
-7 -73 -34z m138 -33 c23 -20 24 -80 1 -105 -21 -24 -68 -23 -93 2 -24 24 -26
77 -3 102 20 22 70 23 95 1z"/>
<path d="M856 725 c-34 -23 -36 -23 -36 -5 0 15 -7 20 -25 20 l-25 0 0 -110
c0 -109 0 -110 24 -110 21 0 24 5 29 61 6 65 33 109 69 109 13 0 18 8 18 30 0
36 -7 37 -54 5z"/>
<path d="M1006 731 c-37 -25 -55 -57 -56 -98 -1 -80 52 -127 133 -120 58 5 73
17 56 44 -10 17 -16 19 -40 10 -29 -11 -89 6 -75 21 4 4 42 19 84 33 69 24 77
29 74 50 -1 13 -16 36 -32 52 -37 33 -100 37 -144 8z m92 -37 c12 -8 22 -18
22 -22 0 -10 -100 -45 -107 -38 -12 11 8 53 29 64 31 14 30 14 56 -4z"/>
<path d="M1289 727 c-63 -42 -70 -134 -15 -186 29 -28 95 -38 136 -21 25 10
28 15 19 31 -8 16 -17 18 -43 13 -35 -6 -85 12 -70 26 5 4 41 18 79 30 39 12
73 25 77 29 4 3 0 21 -9 39 -30 62 -112 81 -174 39z m99 -33 c12 -8 22 -19 22
-23 0 -9 -110 -45 -116 -38 -10 10 17 58 38 67 31 12 31 12 56 -6z"/>
<path d="M1630 724 c-31 -27 -31 -27 -37 -5 -3 14 -13 21 -29 21 -24 0 -24 -1
-24 -110 l0 -110 30 0 c30 0 30 0 30 59 0 64 25 111 60 111 12 0 19 9 22 30 6
38 -10 39 -52 4z"/>
<path d="M2239 727 c-61 -41 -69 -132 -16 -184 29 -30 94 -41 137 -23 25 10
28 15 19 31 -8 16 -17 18 -43 13 -35 -6 -85 12 -70 26 5 4 41 18 79 30 90 29
86 25 73 61 -23 65 -116 89 -179 46z m99 -33 c12 -8 22 -19 22 -23 0 -9 -110
-45 -116 -38 -10 10 17 58 38 67 31 12 31 12 56 -6z"/>
<path d="M3548 732 c-16 -9 -28 -20 -28 -24 0 -5 -4 -8 -10 -8 -5 0 -10 9 -10
20 0 15 -7 20 -25 20 l-25 0 0 -110 0 -110 30 0 30 0 0 63 c0 53 4 67 23 85
13 12 31 22 40 22 12 0 17 9 17 30 0 34 -5 36 -42 12z"/>
<path d="M3850 732 c-45 -22 -74 -78 -65 -126 14 -72 87 -110 166 -87 35 11
38 14 27 31 -10 15 -20 18 -53 13 -37 -5 -44 -2 -63 22 -27 35 -28 55 -1 89
21 27 48 33 78 16 14 -7 23 -5 36 10 17 19 17 20 -18 35 -47 19 -64 19 -107
-3z"/>
<path d="M4092 737 c-51 -29 -73 -101 -49 -160 26 -60 105 -86 157 -50 17 12
25 13 28 5 2 -7 17 -12 33 -12 l29 0 0 110 0 110 -30 0 c-16 0 -30 -5 -30 -11
0 -5 -10 -3 -22 5 -27 19 -84 20 -116 3z m122 -59 c37 -53 3 -122 -56 -116
-61 6 -86 79 -42 122 24 24 80 20 98 -6z"/>
<path d="M3660 630 l0 -110 30 0 30 0 0 110 0 110 -30 0 -30 0 0 -110z"/>
<path d="M2107 283 c-2 -10 -8 -27 -12 -38 -4 -13 -1 -11 9 5 l14 25 11 -28
c15 -39 15 -40 -19 -35 -27 4 -50 -15 -35 -30 3 -3 5 0 5 6 0 7 15 12 35 12
19 0 35 -4 35 -8 0 -5 7 -17 15 -28 8 -10 1 14 -15 55 -35 87 -36 88 -43 64z"/>
<path d="M2235 290 c-8 -13 -8 -130 -1 -138 4 -3 6 11 6 31 0 25 5 37 18 40
15 4 15 5 -2 6 -15 1 -17 7 -14 36 4 37 3 41 -7 25z"/>
<path d="M700 220 l0 -70 48 2 47 1 -42 4 c-40 4 -43 6 -43 33 0 26 4 29 38
33 l37 4 -39 1 c-37 2 -38 3 -34 32 3 17 1 30 -4 30 -4 0 -8 -31 -8 -70z"/>
<path d="M3191 248 c-1 -10 -7 -18 -13 -18 -10 0 -10 -2 -1 -8 6 -4 13 -23 16
-42 l4 -35 1 38 c1 22 7 37 15 37 8 0 9 3 1 8 -6 4 -14 14 -17 22 -4 12 -6 11
-6 -2z"/>
<path d="M852 186 c1 -38 2 -38 5 -8 5 38 26 51 50 31 14 -12 16 -12 11 1 -3
9 -18 15 -36 16 -31 1 -32 0 -30 -40z"/>
<path d="M942 224 c11 -3 18 -19 21 -42 l4 -37 -1 40 c-1 32 -5 40 -21 42 -15
1 -15 0 -3 -3z"/>
<path d="M1031 171 c1 -31 4 -46 6 -33 2 12 9 20 14 16 14 -8 59 4 59 16 0 6
-8 5 -19 -1 -24 -16 -51 -5 -51 21 0 26 27 37 52 21 16 -10 19 -10 16 1 -3 7
-21 13 -41 14 l-37 1 1 -56z"/>
<path d="M1164 216 c-15 -40 21 -80 54 -60 37 24 21 74 -25 74 -13 0 -26 -6
-29 -14z m61 -26 c0 -18 -6 -26 -23 -28 -13 -2 -25 3 -28 12 -10 26 4 48 28
44 17 -2 23 -10 23 -28z"/>
<path d="M1280 225 c0 -5 5 -17 10 -25 5 -8 10 -10 10 -5 0 6 -5 17 -10 25 -5
8 -10 11 -10 5z"/>
<path d="M1385 219 c-4 -6 -5 -12 -2 -15 2 -3 7 2 10 11 7 17 1 20 -8 4z"/>
<path d="M1445 219 c-11 -16 -1 -19 13 -3 7 8 8 14 3 14 -5 0 -13 -5 -16 -11z"/>
<path d="M1490 221 c13 -10 13 -12 0 -22 -13 -9 -13 -10 0 -6 8 2 15 10 15 17
0 7 -7 15 -15 17 -13 4 -13 3 0 -6z"/>
<path d="M1561 185 l1 -40 8 34 c4 18 14 37 21 42 10 6 7 8 -9 6 -19 -1 -22
-7 -21 -42z"/>
<path d="M1653 190 c0 -25 2 -35 4 -22 2 12 2 32 0 45 -2 12 -4 2 -4 -23z"/>
<path d="M1721 186 l2 -41 6 35 c4 26 12 36 28 38 18 3 22 -2 26 -35 l4 -38
-1 40 c-1 38 -3 40 -33 41 -32 1 -33 0 -32 -40z"/>
<path d="M1853 223 c-18 -7 -16 -48 2 -63 8 -7 24 -10 36 -7 17 5 20 2 16 -14
-3 -10 -1 -17 4 -13 16 10 11 91 -7 98 -18 7 -33 7 -51 -1z m52 -33 c0 -18 -6
-26 -23 -28 -24 -4 -38 18 -28 44 3 9 15 14 28 12 17 -2 23 -10 23 -28z"/>
<path d="M2311 185 l1 -40 8 34 c4 18 14 37 21 42 10 6 7 8 -9 6 -19 -1 -22
-7 -21 -42z"/>
<path d="M2403 190 c0 -25 2 -35 4 -22 2 12 2 32 0 45 -2 12 -4 2 -4 -23z"/>
<path d="M2472 218 c-28 -28 -5 -69 38 -67 23 1 23 2 -5 8 -24 5 -30 12 -30
31 0 19 6 26 30 31 28 6 28 7 5 8 -15 0 -31 -4 -38 -11z"/>
<path d="M2582 218 c-16 -16 -15 -43 3 -58 16 -13 65 -6 65 10 0 6 -8 5 -19
-1 -26 -17 -53 -4 -49 23 2 14 13 25 28 29 21 6 22 7 5 8 -12 1 -26 -4 -33
-11z"/>
<path d="M2711 186 l2 -41 6 35 c4 26 12 36 28 38 18 3 22 -2 26 -35 l4 -38
-1 40 c-1 38 -3 40 -33 41 -32 1 -33 0 -32 -40z"/>
<path d="M3064 190 c1 -26 6 -35 19 -36 11 -1 12 0 3 3 -8 2 -17 19 -19 36 -4
31 -4 31 -3 -3z"/>
<path d="M3274 190 c1 -26 6 -35 19 -36 11 -1 12 0 3 3 -8 2 -17 19 -19 36 -4
31 -4 31 -3 -3z"/>
<path d="M3391 185 c2 -33 3 -35 6 -10 2 17 11 35 20 42 13 10 13 12 -6 10
-18 -1 -21 -7 -20 -42z"/>
<path d="M3480 215 c-21 -25 3 -65 37 -64 l28 2 -27 4 c-34 5 -36 16 -5 31 21
11 20 11 -5 6 -32 -7 -38 9 -10 25 9 6 12 11 6 11 -6 0 -17 -7 -24 -15z"/>
<path d="M3530 215 c7 -9 15 -13 17 -11 7 7 -7 26 -19 26 -6 0 -6 -6 2 -15z"/>
<path d="M3600 210 c0 -11 4 -20 10 -20 5 0 7 6 4 14 -3 8 2 16 13 19 14 4 14
5 -4 6 -17 1 -23 -5 -23 -19z"/>
<path d="M1330 217 c0 -14 31 -69 36 -64 3 3 -4 20 -15 38 -12 19 -21 30 -21
26z"/>
<path d="M1440 175 c0 -15 46 -32 57 -21 4 3 -3 6 -15 6 -24 0 -38 16 -20 23
8 3 6 6 -4 6 -10 1 -18 -6 -18 -14z"/>
<path d="M3630 176 c0 -8 -8 -17 -17 -19 -14 -4 -12 -5 5 -6 16 -1 22 5 22 19
0 11 -2 20 -5 20 -3 0 -5 -6 -5 -14z"/>
<path d="M1300 171 c0 -5 5 -13 10 -16 6 -3 10 -2 10 4 0 5 -4 13 -10 16 -5 3
-10 2 -10 -4z"/>
</g>
</svg>
