<?xml version="1.0" standalone="no"?>
<!DOCTYPE svg PUBLIC "-//W3C//DTD SVG 20010904//EN"
 "http://www.w3.org/TR/2001/REC-SVG-20010904/DTD/svg10.dtd">
<svg version="1.0" xmlns="http://www.w3.org/2000/svg"
 width="448.000000pt" height="402.000000pt" viewBox="0 0 448.000000 402.000000"
 preserveAspectRatio="xMidYMid meet">
<metadata>
Created by potrace 1.16, written by Peter Selinger 2001-2019
</metadata>
<g transform="translate(0.000000,402.000000) scale(0.100000,-0.100000)"
fill="#000000" stroke="none">
<path d="M2093 3858 c-148 -14 -394 -110 -486 -190 l-32 -28 47 30 c150 98
293 139 508 147 310 11 518 -61 714 -248 143 -136 229 -286 272 -474 23 -97
25 -366 5 -460 -16 -73 -47 -167 -73 -217 -10 -21 -16 -38 -13 -38 8 0 79 152
98 211 34 99 50 210 44 303 -17 306 -197 616 -460 790 -111 73 -164 98 -282
135 -119 36 -230 49 -342 39z"/>
<path d="M1487 3568 c-256 -251 -370 -600 -294 -898 21 -82 85 -246 92 -238 2
2 -10 42 -26 89 -36 109 -49 194 -49 340 0 295 92 518 294 712 38 37 67 67 64
67 -4 0 -40 -33 -81 -72z"/>
<path d="M1910 3525 c-14 -8 -45 -14 -70 -15 -36 0 -51 -6 -78 -31 -18 -17
-36 -44 -39 -61 -3 -18 -15 -34 -29 -40 -12 -6 -38 -36 -58 -67 -43 -70 -52
-161 -20 -204 10 -14 32 -44 47 -66 35 -50 66 -60 128 -38 61 22 182 23 199 2
7 -8 22 -15 34 -15 45 0 60 -23 64 -96 2 -39 10 -76 18 -85 44 -50 71 -241 43
-303 -10 -21 -8 -34 10 -75 11 -27 21 -60 21 -73 0 -13 14 -50 30 -83 16 -33
30 -70 30 -82 0 -58 74 -8 159 106 44 60 51 75 51 116 0 40 5 51 34 78 18 18
43 39 55 47 21 15 22 16 7 59 -21 59 -20 146 3 196 10 22 51 70 90 107 39 37
71 72 71 78 0 5 -14 10 -31 10 -44 0 -65 15 -72 50 -4 19 -16 34 -32 42 -17 8
-38 37 -63 87 -20 42 -54 105 -74 141 -21 36 -38 74 -38 86 0 19 -7 22 -67 28
-44 5 -69 3 -71 -3 -2 -6 -30 -11 -63 -11 -46 0 -71 6 -113 28 -29 16 -63 31
-74 34 -17 5 -22 14 -22 37 0 27 -3 31 -27 31 -16 -1 -39 -7 -53 -15z"/>
<path d="M1495 2135 c637 -721 679 -766 696 -748 18 20 445 503 613 693 81 92
94 110 51 69 -115 -107 -268 -193 -397 -224 -108 -26 -271 -36 -398 -25 -238
21 -398 92 -570 254 l-74 71 79 -90z"/>
</g>
</svg>
