<svg version="1.1" id="Layer_1" xmlns="http://www.w3.org/2000/svg" xmlns:xlink="http://www.w3.org/1999/xlink" x="0px" y="0px"
	 width="100%" viewBox="0 0 500 500" enable-background="new 0 0 500 500" xml:space="preserve">
<path fill="#FFFFFF" opacity="1.000000" stroke="none" 
	d="
M322.000000,501.000000 
	C214.666687,501.000000 107.833382,501.000000 1.000057,501.000000 
	C1.000038,334.333405 1.000038,167.666794 1.000019,1.000147 
	C167.666565,1.000098 334.333130,1.000098 500.999756,1.000049 
	C500.999847,167.666519 500.999847,334.333038 500.999939,500.999786 
	C441.500000,501.000000 382.000000,501.000000 322.000000,501.000000 
M191.696136,117.991180 
	C188.537659,120.509140 184.457443,122.437370 182.397003,125.657845 
	C176.671860,134.606277 171.645660,144.017197 166.656784,153.411880 
	C165.198746,156.157578 163.672180,157.276382 160.562576,157.069519 
	C156.248734,156.782562 151.900925,156.979202 147.568024,157.014404 
	C143.932556,157.043915 141.162201,158.610001 141.116531,162.449234 
	C141.067200,166.597763 143.894516,168.110901 147.813782,168.020996 
	C151.479050,167.936905 155.147751,168.002991 158.814926,168.002991 
	C158.851166,168.719376 158.887390,169.435760 158.923630,170.152130 
	C155.697998,170.433746 152.366959,170.304199 149.272461,171.097412 
	C145.072861,172.173904 140.175751,172.979645 137.174988,175.677795 
	C133.204865,179.247604 130.608307,184.220749 125.377174,186.745956 
	C123.759148,187.527023 122.638580,190.114548 122.058922,192.099457 
	C121.040115,195.588104 120.525803,199.235794 119.953781,202.841232 
	C116.662277,223.587601 121.731705,244.446930 119.110451,265.240204 
	C118.365944,271.146118 118.928116,277.226440 119.013283,283.225037 
	C119.141891,292.282867 125.934608,299.479248 134.981400,299.788330 
	C142.638855,300.049957 150.319031,300.044098 157.977020,299.790375 
	C167.146759,299.486572 173.774902,292.489899 173.993591,283.316498 
	C174.050903,280.912506 174.002243,278.505981 174.002243,276.291504 
	C179.415970,276.291504 184.033051,276.291504 188.614517,276.291504 
	C189.404083,271.697998 199.733002,260.699615 211.271591,252.088379 
	C217.837311,258.992798 224.430023,265.925598 230.970917,272.803894 
	C229.585342,274.533844 228.534836,275.845459 226.589859,278.273804 
	C261.162292,277.666077 294.374969,277.082214 327.996765,276.491180 
	C327.996765,278.261932 327.981781,280.056213 327.999237,281.850128 
	C328.108917,293.126038 334.833740,299.810669 346.115540,299.844086 
	C351.948639,299.861359 357.781799,299.851196 363.614929,299.846283 
	C376.681091,299.835236 382.477417,293.557739 383.148956,280.687500 
	C383.837646,267.488586 381.377930,254.494614 382.342651,241.190018 
	C383.430237,226.190414 382.023682,210.950256 380.813232,195.886139 
	C380.514801,192.172195 377.051117,188.519333 374.521698,185.240143 
	C372.558624,182.695145 369.212433,181.145950 367.497620,178.496216 
	C364.487122,173.844360 360.465027,171.582092 355.181885,171.159042 
	C352.527863,170.946533 349.836060,171.104004 347.203400,170.766464 
	C345.745911,170.579605 344.375122,169.716766 342.965240,169.158646 
	C346.864319,168.003220 350.356232,167.932770 353.844055,168.022293 
	C357.612579,168.119019 360.758881,167.072662 360.890503,162.814667 
	C361.030121,158.298096 357.841583,156.981857 353.856079,156.993256 
	C348.372589,157.008926 342.889069,156.997162 338.046082,156.997162 
	C331.728302,146.207153 325.568665,135.942276 319.679016,125.524727 
	C316.570190,120.025902 311.800415,117.769981 305.874817,116.965179 
	C276.902069,113.030159 247.840714,112.118286 218.708435,114.582237 
	C209.935852,115.324203 201.218735,116.721992 191.696136,117.991180 
M380.517212,324.724945 
	C376.404510,324.724945 372.291809,324.724945 368.077545,324.724945 
	C364.773376,333.910309 361.596100,342.743011 358.265228,352.002655 
	C368.222198,352.002655 377.548187,352.440125 386.795410,351.777649 
	C390.275604,351.528320 394.100372,349.324951 396.808624,346.928253 
	C399.631256,344.430237 401.011292,340.604248 398.657166,338.122375 
	C399.667328,334.161407 401.858398,330.425537 400.828064,328.145294 
	C399.928284,326.154022 395.475311,325.310944 392.456787,324.853058 
	C388.881805,324.310822 385.161713,324.725189 380.517212,324.724945 
M297.996979,346.281830 
	C297.398071,348.085541 296.799164,349.889282 296.096375,352.005951 
	C299.905701,352.005951 303.323975,352.482239 306.525909,351.854706 
	C309.069885,351.356110 312.649506,350.089569 313.515747,348.154907 
	C316.854919,340.697205 319.289154,332.834320 322.202301,324.728485 
	C318.859802,324.728485 316.138275,325.129059 313.582428,324.648438 
	C307.516022,323.507690 304.279480,325.939636 303.206299,331.814575 
	C302.310760,336.716980 299.088379,335.741882 295.537048,334.933685 
	C296.665710,331.407898 297.687347,328.216461 298.803925,324.728394 
	C293.889160,324.728394 289.555298,324.588440 285.241608,324.821747 
	C284.089661,324.884033 282.357361,325.838623 281.981934,326.806519 
	C278.812500,334.978027 275.896118,343.247681 272.878601,351.557037 
	C287.981812,353.463745 287.979797,353.462921 293.286102,340.574371 
	C293.399261,340.299622 293.714081,340.107880 294.000977,339.808350 
	C295.696381,340.581573 297.399780,341.358429 299.291321,342.221100 
	C298.927216,343.339661 298.576202,344.418091 297.996979,346.281830 
M323.568298,328.990753 
	C321.518188,334.595673 319.365295,340.165802 317.451691,345.816956 
	C316.017120,350.053406 317.279266,351.907867 321.625488,351.973511 
	C329.277130,352.089050 336.987976,352.571381 344.566467,351.817932 
	C350.148376,351.262970 355.649139,348.630035 358.234985,343.188812 
	C360.963287,337.447815 362.710876,331.240723 364.919678,325.146790 
	C349.081024,323.397217 349.079437,323.396637 344.089539,337.193329 
	C343.638184,338.441254 343.135437,339.680206 342.809723,340.962280 
	C341.676331,345.423462 338.859802,346.083221 334.441284,344.564209 
	C336.765564,337.944031 339.021210,331.519379 341.405518,324.728271 
	C336.592896,324.728271 332.589722,324.957916 328.627777,324.652588 
	C325.680603,324.425476 324.320831,325.570465 323.568298,328.990753 
M159.432846,324.730927 
	C158.756378,325.112793 157.672058,325.343140 157.465347,325.899536 
	C154.870178,332.884491 152.257660,339.869873 149.965378,346.957336 
	C148.906647,350.230774 150.605774,352.010956 154.072464,352.007385 
	C161.719757,351.999512 169.496735,352.848969 176.966980,351.699341 
	C181.646530,350.979156 187.406143,348.318848 189.930450,344.641052 
	C193.767776,339.050232 195.217667,331.820831 197.835846,324.878326 
	C191.823441,324.878326 186.711411,324.878326 181.368729,324.878326 
	C179.430298,330.202606 177.311188,335.414429 175.653503,340.769073 
	C174.329880,345.044708 171.898849,346.233704 167.232498,344.599884 
	C169.506226,338.068298 171.749100,331.625427 174.150360,324.727539 
	C169.175674,324.727539 164.726181,324.727539 159.432846,324.730927 
M268.781158,349.470642 
	C271.413910,344.208313 274.289551,339.050232 276.605835,333.652100 
	C278.612335,328.975983 275.961823,324.964691 270.732361,324.815308 
	C263.252960,324.601685 255.749802,324.702362 248.274597,325.050842 
	C243.636307,325.267090 240.081985,327.765808 238.293274,332.174713 
	C236.673386,336.167542 235.069901,340.206879 234.010406,344.366089 
	C233.627335,345.869904 234.518784,347.985718 235.434525,349.440948 
	C236.149780,350.577545 237.834839,351.869812 239.031799,351.816284 
	C248.746399,351.381592 258.676941,353.913788 268.781158,349.470642 
M114.216110,334.723877 
	C111.509285,340.358063 108.802452,345.992279 105.697548,352.455048 
	C113.017761,350.255798 122.464417,356.929260 124.962532,345.170258 
	C127.221870,346.097198 129.091415,346.864227 130.880188,347.598114 
	C130.569229,348.981689 130.260803,350.354065 129.940048,351.781250 
	C145.058395,352.704132 145.057983,352.703979 149.947571,339.090912 
	C150.227478,338.311584 150.529388,337.540131 150.810120,336.761108 
	C153.533707,329.202759 150.310028,324.759491 142.070557,324.731140 
	C137.912338,324.716827 133.752304,324.652863 129.596100,324.745819 
	C122.781456,324.898254 117.344345,327.358307 114.216110,334.723877 
M201.162460,349.160736 
	C201.059341,350.044678 200.956223,350.928650 200.830612,352.005402 
	C205.051315,352.005402 208.879990,352.055603 212.706741,351.991974 
	C216.938171,351.921631 219.935730,350.255493 221.190186,345.829865 
	C222.183533,342.325439 223.951141,339.032806 224.853912,335.512512 
	C225.764221,331.962769 227.614609,330.513336 231.171783,331.171448 
	C235.886398,332.043640 238.106659,329.864685 238.394852,324.730560 
	C227.256958,324.730560 216.129150,325.034668 205.030807,324.595032 
	C199.912476,324.392273 198.436890,326.510864 198.295517,331.186493 
	C201.292358,331.186493 204.093216,331.186493 207.630386,331.186493 
	C205.488647,337.213928 203.505859,342.794006 201.162460,349.160736 
M282.763672,401.826660 
	C278.378082,396.874084 270.207458,398.625092 268.002747,404.572601 
	C266.392548,408.916260 267.243378,412.901550 271.124969,415.625458 
	C274.783905,418.193085 278.677368,417.913025 282.131714,415.041565 
	C285.714874,412.063049 286.019806,407.587067 282.763672,401.826660 
M137.448959,376.919678 
	C137.650009,370.514771 134.993973,366.718872 129.849579,366.058899 
	C125.446999,365.494141 121.067558,368.480469 120.070763,372.727081 
	C118.923416,377.615082 121.577187,382.617584 126.004761,383.913025 
	C130.986267,385.370483 134.847641,383.226044 137.448959,376.919678 
M403.635406,379.185547 
	C403.871948,380.837006 404.108490,382.488464 404.345001,384.139954 
	C405.037537,384.041748 405.730042,383.943542 406.422546,383.845337 
	C406.422546,380.582703 406.422546,377.320068 406.422546,372.943573 
	C410.290131,377.153656 413.251251,380.376984 416.678345,384.107574 
	C416.678345,377.693420 416.678345,372.039276 416.678345,366.385132 
	C416.096924,366.279510 415.515503,366.173889 414.934113,366.068298 
	C414.488312,369.584778 414.042511,373.101257 413.554138,376.953644 
	C410.293854,373.338104 407.395935,370.124420 403.635406,365.954132 
	C403.635406,371.019745 403.635406,374.645233 403.635406,379.185547 
M378.849365,382.685455 
	C382.481171,384.862061 386.529633,385.316742 389.352386,382.185394 
	C391.317291,380.005737 392.600067,376.411194 392.594330,373.451843 
	C392.586670,369.502655 389.540894,366.898254 385.566895,366.164948 
	C381.574066,365.428131 378.229095,366.950104 376.294739,370.488800 
	C373.961639,374.757080 374.636841,378.804565 378.849365,382.685455 
M303.717377,374.291107 
	C301.414337,371.825653 299.111328,369.360229 296.324219,366.376556 
	C296.324219,372.848541 296.324219,378.379211 296.324219,384.841400 
	C301.120636,381.707428 297.363129,377.026062 299.717163,373.834595 
	C302.726746,377.103760 305.665649,380.296173 308.631439,383.517761 
	C308.631439,377.437378 308.631439,371.817169 308.631439,366.196991 
	C308.119141,366.203369 307.606812,366.209717 307.094513,366.216095 
	C306.896973,369.515839 306.699432,372.815613 306.468140,376.679077 
	C305.443512,375.885406 304.839355,375.417450 303.717377,374.291107 
M248.206970,414.819122 
	C248.372711,413.350647 248.538452,411.882141 248.706436,410.393829 
	C253.331879,410.743713 251.962738,417.671539 257.399475,416.839142 
	C255.985275,414.261902 254.881577,412.250488 253.777863,410.239105 
	C254.207550,410.227478 254.637238,410.215881 255.066925,410.204254 
	C255.374695,407.516541 256.913971,403.604279 255.723129,402.406677 
	C253.526535,400.197632 249.727631,399.581848 245.636063,397.909790 
	C245.636063,404.751221 245.558044,409.875183 245.674698,414.994720 
	C245.720963,417.025574 245.917633,417.021088 248.206970,414.819122 
M252.641037,368.181122 
	C252.699188,373.501587 252.483185,378.849518 252.758789,384.148193 
	C253.412796,384.139832 254.066788,384.131500 254.720795,384.123138 
	C255.069687,381.907928 255.418564,379.692749 255.946472,376.340881 
	C258.814087,379.629639 260.930450,382.056793 263.046814,384.483948 
	C263.415375,384.149780 263.783966,383.815582 264.152557,383.481384 
	C263.009552,381.319244 261.866547,379.157104 260.721558,376.991241 
	C263.437286,374.440979 265.102417,371.376556 262.460876,368.606934 
	C259.950043,365.974274 256.349579,364.890442 252.641037,368.181122 
M300.688385,413.696045 
	C303.922455,414.666046 307.156525,415.636047 310.745178,416.712372 
	C307.962036,410.938049 305.288330,405.390808 302.198181,398.979553 
	C299.118011,405.391266 296.449097,410.946930 293.780182,416.502563 
	C294.045776,416.778503 294.311401,417.054413 294.576996,417.330322 
	C296.323486,416.121429 298.069977,414.912567 300.688385,413.696045 
M331.242218,414.833069 
	C334.370453,411.365356 335.063812,407.402069 332.794556,403.373077 
	C329.983154,398.381439 325.099213,399.250824 320.291656,399.343292 
	C320.291656,405.406494 320.291656,411.116913 320.291656,417.809570 
	C324.048340,416.895935 327.323151,416.099487 331.242218,414.833069 
M234.576813,380.715332 
	C237.387054,381.766418 240.197281,382.817535 243.741867,384.143280 
	C240.683960,377.830322 238.001038,372.291534 234.918442,365.927582 
	C231.830368,372.416382 229.189590,377.965271 225.993973,384.680023 
	C229.320648,382.965790 231.503784,381.840851 234.576813,380.715332 
M171.863907,371.645874 
	C171.863907,375.770294 171.863907,379.894745 171.863907,384.019165 
	C172.520264,384.083649 173.176636,384.148163 173.832993,384.212646 
	C174.301468,381.975647 174.769943,379.738678 175.411377,376.675812 
	C178.087158,379.681915 180.202850,382.058777 182.318542,384.435669 
	C182.685349,384.085205 183.052170,383.734772 183.418976,383.384308 
	C182.301895,381.366699 181.184814,379.349060 180.067719,377.331451 
	C180.492996,377.340851 180.918259,377.350250 181.343536,377.359650 
	C181.603546,374.540039 183.122147,370.507050 181.838531,369.175598 
	C179.735352,366.994049 175.810867,366.568359 171.863922,365.109985 
	C171.863922,368.087158 171.863922,369.390503 171.863907,371.645874 
M350.368713,374.021271 
	C351.467468,367.537048 347.980438,365.101898 340.493011,366.791992 
	C340.493011,372.617218 340.493011,378.346954 340.493011,384.076721 
	C340.966095,384.117401 341.439209,384.158081 341.912292,384.198761 
	C342.365662,381.933563 342.819031,379.668365 343.586090,375.835815 
	C345.352905,378.575897 346.159088,380.092529 347.224274,381.397736 
	C348.153198,382.536011 349.374054,383.435944 350.909729,384.849731 
	C351.630493,380.551025 345.510895,378.393829 350.368713,374.021271 
M195.509262,408.954163 
	C202.588181,408.743683 196.859802,414.859833 200.579636,417.496643 
	C201.053009,415.984344 201.763443,414.714966 201.806091,413.423584 
	C202.228226,400.637177 202.196915,400.636139 199.201752,399.309967 
	C199.036942,401.663666 198.878326,403.929016 198.716812,406.235779 
	C196.753815,406.235779 195.024628,406.235779 193.529190,406.235779 
	C191.719254,404.053070 194.912125,400.199677 190.308609,399.070709 
	C190.308609,405.229187 190.308609,411.078827 190.308609,416.928467 
	C190.736038,417.054962 191.163452,417.181488 191.590881,417.307983 
	C192.037674,416.143982 192.507278,414.988068 192.925735,413.813965 
	C193.499771,412.203339 194.034988,410.578888 195.509262,408.954163 
M158.948410,382.524231 
	C162.024109,376.441223 161.782608,367.940308 157.907074,366.056732 
	C157.907074,370.116302 158.232071,373.943634 157.745239,377.664795 
	C157.553650,379.129242 155.548523,380.356445 154.369217,381.691650 
	C153.249283,380.304901 151.439316,379.044128 151.158081,377.504211 
	C150.629089,374.607635 151.092422,371.542908 150.901993,368.563477 
	C150.844772,367.668427 149.988403,366.824463 149.498138,365.957092 
	C149.012085,366.102142 148.526047,366.247192 148.039993,366.392273 
	C148.039993,369.816406 147.922394,373.245422 148.064758,376.663605 
	C148.351074,383.537872 151.675171,385.565948 158.948410,382.524231 
M326.005951,368.886810 
	C326.927429,368.516083 327.848907,368.145386 328.770386,367.774658 
	C328.658997,367.371094 328.547607,366.967499 328.436218,366.563934 
	C326.050079,366.563934 323.663940,366.563934 321.054535,366.563934 
	C321.054535,372.272003 321.054535,378.006073 321.054535,384.140320 
	C323.957092,383.987579 326.680756,383.844269 329.404419,383.700928 
	C329.425049,383.210846 329.445648,382.720764 329.466278,382.230682 
	C327.689148,381.876312 325.912048,381.521942 323.892883,381.119293 
	C323.892883,379.566772 323.892883,377.992523 323.892883,376.265656 
	C324.712738,376.180084 325.368927,376.200653 325.967682,376.025177 
	C326.624329,375.832703 327.228027,375.459503 328.126038,375.037598 
	C322.836609,372.048218 322.836609,372.048218 326.005951,368.886810 
M214.331604,377.138763 
	C218.334763,375.992432 219.106415,372.837250 217.899460,369.664459 
	C216.222992,365.257538 212.111877,366.291016 208.272018,366.341736 
	C208.272018,372.372131 208.272018,378.112549 208.272018,383.852966 
	C208.685364,384.003448 209.098709,384.153931 209.512054,384.304413 
	C209.992783,383.204163 210.375763,382.046600 210.978851,381.018097 
	C211.739029,379.721771 212.678940,378.530792 214.331604,377.138763 
M100.235168,372.571289 
	C101.385002,376.450531 102.534836,380.329773 103.586159,383.876709 
	C105.882515,377.698090 108.005104,371.987000 110.127693,366.275909 
	C109.899101,366.048492 109.670509,365.821075 109.441917,365.593658 
	C107.517021,367.883698 105.592125,370.173706 103.873665,372.218140 
	C101.873642,370.021515 99.955238,367.914520 98.036835,365.807526 
	C97.592201,366.203583 97.147568,366.599670 96.702934,366.995728 
	C97.755844,368.626099 98.808762,370.256470 100.235168,372.571289 
M219.598450,406.927551 
	C216.797989,406.568542 214.804642,405.640076 216.290283,402.245758 
	C217.886917,401.909698 219.476517,401.575104 221.066116,401.240509 
	C221.035919,400.702362 221.005707,400.164215 220.975494,399.626038 
	C218.448853,399.466309 215.922195,399.306580 213.343033,399.143494 
	C213.343033,405.527161 213.343033,411.241089 213.343033,416.574371 
	C216.377350,416.574371 219.049942,416.574371 221.722534,416.574371 
	C221.771606,416.154755 221.820679,415.735107 221.869751,415.315491 
	C219.994141,414.916534 218.118546,414.517609 216.144836,414.097809 
	C216.144836,412.488434 216.144836,410.884338 216.144836,409.867706 
	C217.683121,408.995483 218.803665,408.360107 219.598450,406.927551 
M172.287567,413.148376 
	C172.699478,414.512726 173.111374,415.877045 173.523285,417.241394 
	C174.083435,417.060242 174.643585,416.879089 175.203735,416.697937 
	C175.203735,411.942047 175.203735,407.186157 175.203735,402.528076 
	C176.999664,402.017487 178.465042,401.600891 180.265793,401.088959 
	C176.724304,398.351044 170.442886,398.438385 167.658813,401.263611 
	C169.340515,401.713043 170.779236,402.097565 172.287537,402.500671 
	C172.287537,405.913574 172.287537,409.072693 172.287567,413.148376 
M278.593933,366.136017 
	C277.005524,366.295898 275.417084,366.455811 273.828674,366.615692 
	C273.812103,367.114655 273.795502,367.613647 273.778931,368.112610 
	C275.282867,368.623779 276.786835,369.134949 278.190186,369.611908 
	C278.559204,383.014740 278.559204,383.014740 281.013977,383.934814 
	C281.013977,379.072083 281.013977,374.318359 281.013977,369.669159 
	C282.913269,369.035950 284.460938,368.519958 286.008636,368.003937 
	C285.979889,367.547394 285.951111,367.090881 285.922363,366.634338 
	C283.780060,366.468231 281.637756,366.302124 278.593933,366.136017 
z"/>
<path fill="#204FB8" opacity="1.000000" stroke="none" 
	d="
M192.086182,117.905273 
	C201.218735,116.721992 209.935852,115.324203 218.708435,114.582237 
	C247.840714,112.118286 276.902069,113.030159 305.874817,116.965179 
	C311.800415,117.769981 316.570190,120.025902 319.679016,125.524727 
	C325.568665,135.942276 331.728302,146.207153 338.046082,156.997162 
	C342.889069,156.997162 348.372589,157.008926 353.856079,156.993256 
	C357.841583,156.981857 361.030121,158.298096 360.890503,162.814667 
	C360.758881,167.072662 357.612579,168.119019 353.844055,168.022293 
	C350.356232,167.932770 346.864319,168.003220 342.965240,169.158646 
	C344.375122,169.716766 345.745911,170.579605 347.203400,170.766464 
	C349.836060,171.104004 352.527863,170.946533 355.181885,171.159042 
	C360.465027,171.582092 364.487122,173.844360 367.497620,178.496216 
	C369.212433,181.145950 372.558624,182.695145 374.521698,185.240143 
	C377.051117,188.519333 380.514801,192.172195 380.813232,195.886139 
	C382.023682,210.950256 383.430237,226.190414 382.342651,241.190018 
	C381.377930,254.494614 383.837646,267.488586 383.148956,280.687500 
	C382.477417,293.557739 376.681091,299.835236 363.614929,299.846283 
	C357.781799,299.851196 351.948639,299.861359 346.115540,299.844086 
	C334.833740,299.810669 328.108917,293.126038 327.999237,281.850128 
	C327.981781,280.056213 327.996765,278.261932 327.996765,276.491180 
	C294.374969,277.082214 261.162292,277.666077 226.589859,278.273804 
	C228.534836,275.845459 229.585342,274.533844 230.970917,272.803894 
	C224.430023,265.925598 217.837311,258.992798 211.271591,252.088379 
	C199.733002,260.699615 189.404083,271.697998 188.614517,276.291504 
	C184.033051,276.291504 179.415970,276.291504 174.002243,276.291504 
	C174.002243,278.505981 174.050903,280.912506 173.993591,283.316498 
	C173.774902,292.489899 167.146759,299.486572 157.977020,299.790375 
	C150.319031,300.044098 142.638855,300.049957 134.981400,299.788330 
	C125.934608,299.479248 119.141891,292.282867 119.013283,283.225037 
	C118.928116,277.226440 118.365944,271.146118 119.110451,265.240204 
	C121.731705,244.446930 116.662277,223.587601 119.953781,202.841232 
	C120.525803,199.235794 121.040115,195.588104 122.058922,192.099457 
	C122.638580,190.114548 123.759148,187.527023 125.377174,186.745956 
	C130.608307,184.220749 133.204865,179.247604 137.174988,175.677795 
	C140.175751,172.979645 145.072861,172.173904 149.272461,171.097412 
	C152.366959,170.304199 155.697998,170.433746 158.923630,170.152130 
	C158.887390,169.435760 158.851166,168.719376 158.814926,168.002991 
	C155.147751,168.002991 151.479050,167.936905 147.813782,168.020996 
	C143.894516,168.110901 141.067200,166.597763 141.116531,162.449234 
	C141.162201,158.610001 143.932556,157.043915 147.568024,157.014404 
	C151.900925,156.979202 156.248734,156.782562 160.562576,157.069519 
	C163.672180,157.276382 165.198746,156.157578 166.656784,153.411880 
	C171.645660,144.017197 176.671860,134.606277 182.397003,125.657845 
	C184.457443,122.437370 188.537659,120.509140 192.086182,117.905273 
M272.665771,157.637894 
	C291.041077,159.485947 309.416412,161.334000 328.567627,163.260086 
	C322.971344,153.213608 317.412811,143.413559 312.044159,133.510590 
	C309.836823,129.438980 306.551178,127.771179 302.078888,127.265686 
	C266.892029,123.288582 231.740402,123.028694 196.640228,128.099319 
	C194.873398,128.354553 192.588226,129.503357 191.742950,130.940872 
	C185.479218,141.593170 179.519394,152.424179 172.740219,164.487061 
	C206.624908,157.861099 239.076462,156.237000 272.665771,157.637894 
M260.953705,212.545959 
	C258.188232,209.662735 255.601349,206.570892 252.581055,203.985336 
	C251.097519,202.715347 248.775879,201.678497 246.894241,201.771027 
	C242.670120,201.978745 233.936783,212.447815 233.359558,216.794937 
	C232.315811,224.655457 236.267715,234.058350 224.882675,239.319092 
	C232.492065,245.925629 239.102402,251.664780 245.953156,257.612671 
	C248.328079,252.492737 253.689926,251.929092 259.628418,252.490097 
	C261.151978,252.634003 263.203613,252.315414 264.258606,251.368881 
	C268.034637,247.980957 271.486938,244.232193 274.896515,240.786804 
	C270.030853,233.925064 264.949768,227.584152 257.134430,226.195709 
	C255.066254,231.351822 252.977661,236.558853 250.889069,241.765900 
	C250.042679,241.616638 249.196289,241.467377 248.349899,241.318130 
	C248.244751,239.916260 247.517639,238.097839 248.133240,237.178680 
	C252.894135,230.070084 252.844193,223.268234 247.714249,216.381683 
	C247.119843,215.583740 247.481094,214.073929 247.399261,212.894150 
	C248.647980,213.184738 250.243973,213.087433 251.081528,213.837296 
	C253.803452,216.274185 256.158325,219.116013 258.820618,221.625778 
	C262.508209,225.102112 265.131409,224.899857 268.973114,220.956573 
	C266.473297,218.326675 263.963837,215.686661 260.953705,212.545959 
M149.894638,214.747452 
	C143.502502,213.873138 137.110367,212.998825 130.338318,212.072540 
	C130.338318,217.781830 130.338318,223.154068 130.338318,228.855362 
	C148.601837,229.987289 166.576431,231.101318 184.821365,232.232117 
	C184.821365,229.807953 184.992340,228.007828 184.791351,226.250214 
	C183.983765,219.188278 182.152267,217.660080 175.064163,217.116608 
	C166.960007,216.495239 158.875183,215.621307 149.894638,214.747452 
M355.493713,229.932999 
	C360.908356,229.521027 366.322968,229.109055 371.631958,228.705124 
	C371.631958,222.947678 371.631958,217.688293 371.631958,212.462723 
	C356.724548,214.048782 342.195862,215.720932 327.638947,217.093796 
	C319.483337,217.862961 318.113098,218.904327 317.214966,227.139160 
	C317.056915,228.588165 317.192566,230.069214 317.192566,232.168228 
	C329.746429,231.437439 342.147858,230.715515 355.493713,229.932999 
M225.472946,187.411728 
	C223.199829,184.675964 220.926727,181.940201 218.075287,178.508408 
	C215.107880,187.831390 223.236176,197.284576 230.668732,197.721344 
	C237.393570,198.116516 244.187546,197.335190 250.951035,197.072632 
	C251.256073,196.702148 251.561096,196.331680 251.866135,195.961212 
	C246.567215,192.879990 247.185623,188.672913 247.710342,183.804337 
	C248.746872,174.187119 240.114624,166.357697 230.028503,168.088181 
	C231.909180,170.349380 234.413895,172.011551 236.419250,174.143448 
	C240.087234,178.042831 240.544052,182.906891 237.671951,186.294754 
	C234.369263,190.190552 230.363907,190.331802 225.472946,187.411728 
M285.535583,237.190750 
	C284.257690,237.986206 282.979767,238.781647 281.701874,239.577103 
	C282.502655,239.918182 283.303406,240.259262 284.104187,240.600342 
	C284.104187,243.275696 284.645935,246.089111 284.005768,248.601318 
	C281.810730,257.214966 290.698853,269.356537 300.845337,267.002777 
	C298.895050,264.764069 297.256287,262.823456 295.553833,260.940430 
	C291.265533,256.197235 290.890656,251.311584 294.575409,247.674881 
	C298.403625,243.896622 303.529816,244.383026 308.154480,249.107941 
	C310.037231,251.031509 311.690002,253.180222 314.103149,255.990051 
	C315.551392,244.628799 307.388428,236.200043 297.443115,236.929062 
	C294.455505,237.148087 291.252869,238.936569 288.820526,235.472549 
	C288.712952,235.319336 287.039215,236.265854 285.535583,237.190750 
M220.266083,255.232895 
	C225.621552,260.855530 230.977020,266.478180 236.108246,271.865417 
	C238.926849,269.127960 241.396317,266.729584 244.669617,263.550537 
	C236.015076,255.822098 227.370438,248.102524 218.512741,240.192688 
	C216.931213,241.765808 214.596130,244.088501 212.124435,246.547058 
	C214.786240,249.374878 217.292267,252.037216 220.266083,255.232895 
M277.136078,236.478470 
	C282.048615,237.628403 283.332306,232.910309 285.973846,230.690720 
	C291.528625,226.023254 291.318298,225.719147 285.097351,220.838394 
	C282.258636,223.512787 279.545532,226.425629 276.464081,228.875046 
	C273.147034,231.511673 273.666687,233.666489 277.136078,236.478470 
M274.661865,207.983856 
	C278.603241,203.753433 278.414093,202.874802 272.164978,198.964890 
	C269.296783,202.066818 266.310516,205.296417 263.295288,208.557343 
	C264.894775,210.387711 266.483002,212.205215 268.125519,214.084839 
	C270.495331,211.875153 272.303436,210.189240 274.661865,207.983856 
M280.515656,210.903198 
	C279.679260,210.799881 278.525391,210.294052 278.059967,210.661133 
	C275.736023,212.494034 273.592773,214.556091 271.409058,216.516830 
	C272.597778,218.340103 274.046021,219.575027 274.009155,220.763885 
	C273.966675,222.134338 272.843018,223.705841 271.758606,224.737869 
	C270.832214,225.619492 269.297150,225.861526 268.031311,226.386490 
	C268.811066,227.177505 269.590820,227.968521 270.370575,228.759552 
	C275.030396,224.354080 279.690186,219.948608 284.526855,215.375946 
	C282.980408,213.615005 282.005676,212.505035 280.515656,210.903198 
M262.401550,202.806351 
	C264.388794,201.362549 266.376068,199.918732 268.222931,198.576920 
	C262.079620,191.049698 261.201233,191.209854 254.464630,199.902100 
	C257.325317,200.332260 256.891571,207.060471 262.401550,202.806351 
z"/>
<path fill="#050505" opacity="1.000000" stroke="none" 
	d="
M381.010864,324.724976 
	C385.161713,324.725189 388.881805,324.310822 392.456787,324.853058 
	C395.475311,325.310944 399.928284,326.154022 400.828064,328.145294 
	C401.858398,330.425537 399.667328,334.161407 398.657166,338.122375 
	C401.011292,340.604248 399.631256,344.430237 396.808624,346.928253 
	C394.100372,349.324951 390.275604,351.528320 386.795410,351.777649 
	C377.548187,352.440125 368.222198,352.002655 358.265228,352.002655 
	C361.596100,342.743011 364.773376,333.910309 368.077545,324.724945 
	C372.291809,324.724945 376.404510,324.724945 381.010864,324.724976 
z"/>
<path fill="#040404" opacity="1.000000" stroke="none" 
	d="
M298.111084,345.889160 
	C298.576202,344.418091 298.927216,343.339661 299.291321,342.221100 
	C297.399780,341.358429 295.696381,340.581573 294.000977,339.808350 
	C293.714081,340.107880 293.399261,340.299622 293.286102,340.574371 
	C287.979797,353.462921 287.981812,353.463745 272.878601,351.557037 
	C275.896118,343.247681 278.812500,334.978027 281.981934,326.806519 
	C282.357361,325.838623 284.089661,324.884033 285.241608,324.821747 
	C289.555298,324.588440 293.889160,324.728394 298.803925,324.728394 
	C297.687347,328.216461 296.665710,331.407898 295.537048,334.933685 
	C299.088379,335.741882 302.310760,336.716980 303.206299,331.814575 
	C304.279480,325.939636 307.516022,323.507690 313.582428,324.648438 
	C316.138275,325.129059 318.859802,324.728485 322.202301,324.728485 
	C319.289154,332.834320 316.854919,340.697205 313.515747,348.154907 
	C312.649506,350.089569 309.069885,351.356110 306.525909,351.854706 
	C303.323975,352.482239 299.905701,352.005951 296.096375,352.005951 
	C296.799164,349.889282 297.398071,348.085541 298.111084,345.889160 
z"/>
<path fill="#040404" opacity="1.000000" stroke="none" 
	d="
M323.713867,328.628235 
	C324.320831,325.570465 325.680603,324.425476 328.627777,324.652588 
	C332.589722,324.957916 336.592896,324.728271 341.405518,324.728271 
	C339.021210,331.519379 336.765564,337.944031 334.441284,344.564209 
	C338.859802,346.083221 341.676331,345.423462 342.809723,340.962280 
	C343.135437,339.680206 343.638184,338.441254 344.089539,337.193329 
	C349.079437,323.396637 349.081024,323.397217 364.919678,325.146790 
	C362.710876,331.240723 360.963287,337.447815 358.234985,343.188812 
	C355.649139,348.630035 350.148376,351.262970 344.566467,351.817932 
	C336.987976,352.571381 329.277130,352.089050 321.625488,351.973511 
	C317.279266,351.907867 316.017120,350.053406 317.451691,345.816956 
	C319.365295,340.165802 321.518188,334.595673 323.713867,328.628235 
z"/>
<path fill="#040404" opacity="1.000000" stroke="none" 
	d="
M159.854767,324.729248 
	C164.726181,324.727539 169.175674,324.727539 174.150360,324.727539 
	C171.749100,331.625427 169.506226,338.068298 167.232498,344.599884 
	C171.898849,346.233704 174.329880,345.044708 175.653503,340.769073 
	C177.311188,335.414429 179.430298,330.202606 181.368729,324.878326 
	C186.711411,324.878326 191.823441,324.878326 197.835846,324.878326 
	C195.217667,331.820831 193.767776,339.050232 189.930450,344.641052 
	C187.406143,348.318848 181.646530,350.979156 176.966980,351.699341 
	C169.496735,352.848969 161.719757,351.999512 154.072464,352.007385 
	C150.605774,352.010956 148.906647,350.230774 149.965378,346.957336 
	C152.257660,339.869873 154.870178,332.884491 157.465347,325.899536 
	C157.672058,325.343140 158.756378,325.112793 159.854767,324.729248 
z"/>
<path fill="#050505" opacity="1.000000" stroke="none" 
	d="
M268.463074,349.680664 
	C258.676941,353.913788 248.746399,351.381592 239.031799,351.816284 
	C237.834839,351.869812 236.149780,350.577545 235.434525,349.440948 
	C234.518784,347.985718 233.627335,345.869904 234.010406,344.366089 
	C235.069901,340.206879 236.673386,336.167542 238.293274,332.174713 
	C240.081985,327.765808 243.636307,325.267090 248.274597,325.050842 
	C255.749802,324.702362 263.252960,324.601685 270.732361,324.815308 
	C275.961823,324.964691 278.612335,328.975983 276.605835,333.652100 
	C274.289551,339.050232 271.413910,344.208313 268.463074,349.680664 
M256.413971,343.672760 
	C257.800262,339.771790 259.186523,335.870789 260.626984,331.817322 
	C254.553711,331.072662 251.097565,336.287323 251.005524,345.577301 
	C252.785751,345.111298 254.388931,344.691620 256.413971,343.672760 
z"/>
<path fill="#040404" opacity="1.000000" stroke="none" 
	d="
M114.415329,334.412537 
	C117.344345,327.358307 122.781456,324.898254 129.596100,324.745819 
	C133.752304,324.652863 137.912338,324.716827 142.070557,324.731140 
	C150.310028,324.759491 153.533707,329.202759 150.810120,336.761108 
	C150.529388,337.540131 150.227478,338.311584 149.947571,339.090912 
	C145.057983,352.703979 145.058395,352.704132 129.940048,351.781250 
	C130.260803,350.354065 130.569229,348.981689 130.880188,347.598114 
	C129.091415,346.864227 127.221870,346.097198 124.962532,345.170258 
	C122.464417,356.929260 113.017761,350.255798 105.697548,352.455048 
	C108.802452,345.992279 111.509285,340.358063 114.415329,334.412537 
M130.938217,333.470459 
	C129.796310,335.785614 128.654419,338.100739 127.433609,340.575897 
	C133.933334,341.251160 136.178085,338.614990 135.582153,330.819000 
	C134.013565,331.574860 132.698975,332.208282 130.938217,333.470459 
z"/>
<path fill="#030303" opacity="1.000000" stroke="none" 
	d="
M201.342773,348.767395 
	C203.505859,342.794006 205.488647,337.213928 207.630386,331.186493 
	C204.093216,331.186493 201.292358,331.186493 198.295517,331.186493 
	C198.436890,326.510864 199.912476,324.392273 205.030807,324.595032 
	C216.129150,325.034668 227.256958,324.730560 238.394852,324.730560 
	C238.106659,329.864685 235.886398,332.043640 231.171783,331.171448 
	C227.614609,330.513336 225.764221,331.962769 224.853912,335.512512 
	C223.951141,339.032806 222.183533,342.325439 221.190186,345.829865 
	C219.935730,350.255493 216.938171,351.921631 212.706741,351.991974 
	C208.879990,352.055603 205.051315,352.005402 200.830612,352.005402 
	C200.956223,350.928650 201.059341,350.044678 201.342773,348.767395 
z"/>
<path fill="#1B1B1B" opacity="1.000000" stroke="none" 
	d="
M282.994751,402.143616 
	C286.019806,407.587067 285.714874,412.063049 282.131714,415.041565 
	C278.677368,417.913025 274.783905,418.193085 271.124969,415.625458 
	C267.243378,412.901550 266.392548,408.916260 268.002747,404.572601 
	C270.207458,398.625092 278.378082,396.874084 282.994751,402.143616 
M275.631226,401.742340 
	C274.706604,402.050720 273.598785,402.132660 272.889130,402.706757 
	C269.869171,405.150024 269.162689,408.673309 271.333771,411.486969 
	C272.652802,413.196411 276.100128,414.428772 278.276855,414.053101 
	C282.056854,413.400726 282.882507,409.585144 281.750092,406.549347 
	C281.004852,404.551514 278.287811,403.289185 275.631226,401.742340 
z"/>
<path fill="#191919" opacity="1.000000" stroke="none" 
	d="
M137.354980,377.290710 
	C134.847641,383.226044 130.986267,385.370483 126.004761,383.913025 
	C121.577187,382.617584 118.923416,377.615082 120.070763,372.727081 
	C121.067558,368.480469 125.446999,365.494141 129.849579,366.058899 
	C134.993973,366.718872 137.650009,370.514771 137.354980,377.290710 
M133.437042,370.987488 
	C132.966980,370.523163 132.465881,369.632874 132.031937,369.664520 
	C129.445633,369.852966 125.627762,369.365662 124.604317,370.801910 
	C123.225090,372.737427 123.218437,376.513062 124.146484,378.908691 
	C124.706825,380.355255 128.265228,381.566620 130.282181,381.316528 
	C133.741714,380.887543 134.760101,377.763062 134.645309,374.508118 
	C134.611298,373.543427 134.142883,372.594025 133.437042,370.987488 
z"/>
<path fill="#141414" opacity="1.000000" stroke="none" 
	d="
M403.635406,378.728119 
	C403.635406,374.645233 403.635406,371.019745 403.635406,365.954132 
	C407.395935,370.124420 410.293854,373.338104 413.554138,376.953644 
	C414.042511,373.101257 414.488312,369.584778 414.934113,366.068298 
	C415.515503,366.173889 416.096924,366.279510 416.678345,366.385132 
	C416.678345,372.039276 416.678345,377.693420 416.678345,384.107574 
	C413.251251,380.376984 410.290131,377.153656 406.422546,372.943573 
	C406.422546,377.320068 406.422546,380.582703 406.422546,383.845337 
	C405.730042,383.943542 405.037537,384.041748 404.345001,384.139954 
	C404.108490,382.488464 403.871948,380.837006 403.635406,378.728119 
z"/>
<path fill="#181818" opacity="1.000000" stroke="none" 
	d="
M378.565704,382.444885 
	C374.636841,378.804565 373.961639,374.757080 376.294739,370.488800 
	C378.229095,366.950104 381.574066,365.428131 385.566895,366.164948 
	C389.540894,366.898254 392.586670,369.502655 392.594330,373.451843 
	C392.600067,376.411194 391.317291,380.005737 389.352386,382.185394 
	C386.529633,385.316742 382.481171,384.862061 378.565704,382.444885 
M389.699310,373.069092 
	C388.541931,369.800262 386.123444,367.803650 382.868134,368.990692 
	C380.937286,369.694794 378.909180,371.968292 378.265381,373.967773 
	C377.076721,377.659546 379.779297,381.257019 383.272430,381.734344 
	C387.226990,382.274750 389.629120,379.403564 389.699310,373.069092 
z"/>
<path fill="#151515" opacity="1.000000" stroke="none" 
	d="
M303.976288,374.620300 
	C304.839355,375.417450 305.443512,375.885406 306.468140,376.679077 
	C306.699432,372.815613 306.896973,369.515839 307.094513,366.216095 
	C307.606812,366.209717 308.119141,366.203369 308.631439,366.196991 
	C308.631439,371.817169 308.631439,377.437378 308.631439,383.517761 
	C305.665649,380.296173 302.726746,377.103760 299.717163,373.834595 
	C297.363129,377.026062 301.120636,381.707428 296.324219,384.841400 
	C296.324219,378.379211 296.324219,372.848541 296.324219,366.376556 
	C299.111328,369.360229 301.414337,371.825653 303.976288,374.620300 
z"/>
<path fill="#151515" opacity="1.000000" stroke="none" 
	d="
M248.201172,415.255371 
	C245.917633,417.021088 245.720963,417.025574 245.674698,414.994720 
	C245.558044,409.875183 245.636063,404.751221 245.636063,397.909790 
	C249.727631,399.581848 253.526535,400.197632 255.723129,402.406677 
	C256.913971,403.604279 255.374695,407.516541 255.066925,410.204254 
	C254.637238,410.215881 254.207550,410.227478 253.777863,410.239105 
	C254.881577,412.250488 255.985275,414.261902 257.399475,416.839142 
	C251.962738,417.671539 253.331879,410.743713 248.706436,410.393829 
	C248.538452,411.882141 248.372711,413.350647 248.201172,415.255371 
M248.632156,407.846649 
	C251.350876,408.403961 253.986954,408.148743 253.865753,404.719391 
	C253.740051,401.162323 250.937958,401.711975 248.205704,401.992706 
	C248.205704,403.871979 248.205704,405.482483 248.632156,407.846649 
z"/>
<path fill="#151515" opacity="1.000000" stroke="none" 
	d="
M252.687286,367.755768 
	C256.349579,364.890442 259.950043,365.974274 262.460876,368.606934 
	C265.102417,371.376556 263.437286,374.440979 260.721558,376.991241 
	C261.866547,379.157104 263.009552,381.319244 264.152557,383.481384 
	C263.783966,383.815582 263.415375,384.149780 263.046814,384.483948 
	C260.930450,382.056793 258.814087,379.629639 255.946472,376.340881 
	C255.418564,379.692749 255.069687,381.907928 254.720795,384.123138 
	C254.066788,384.131500 253.412796,384.139832 252.758789,384.148193 
	C252.483185,378.849518 252.699188,373.501587 252.687286,367.755768 
M256.466461,368.721191 
	C255.897415,370.674866 255.328384,372.628540 254.759354,374.582214 
	C255.295410,374.988281 255.831451,375.394348 256.367493,375.800415 
	C257.894531,374.623291 259.421539,373.446136 260.948578,372.269012 
	C259.742737,371.086365 258.536896,369.903687 256.466461,368.721191 
z"/>
<path fill="#1D1D1D" opacity="1.000000" stroke="none" 
	d="
M300.252441,413.699860 
	C298.069977,414.912567 296.323486,416.121429 294.576996,417.330322 
	C294.311401,417.054413 294.045776,416.778503 293.780182,416.502563 
	C296.449097,410.946930 299.118011,405.391266 302.198181,398.979553 
	C305.288330,405.390808 307.962036,410.938049 310.745178,416.712372 
	C307.156525,415.636047 303.922455,414.666046 300.252441,413.699860 
z"/>
<path fill="#1A1A1A" opacity="1.000000" stroke="none" 
	d="
M330.920074,415.068054 
	C327.323151,416.099487 324.048340,416.895935 320.291656,417.809570 
	C320.291656,411.116913 320.291656,405.406494 320.291656,399.343292 
	C325.099213,399.250824 329.983154,398.381439 332.794556,403.373077 
	C335.063812,407.402069 334.370453,411.365356 330.920074,415.068054 
M326.016083,401.942261 
	C324.988129,402.553864 323.130737,403.094940 323.071686,403.789001 
	C322.769958,407.336731 322.932220,410.923889 322.932220,414.485901 
	C327.091278,414.762817 330.017303,413.811829 330.792938,410.023224 
	C331.505524,406.542480 330.955017,403.332367 326.016083,401.942261 
z"/>
<path fill="#232323" opacity="1.000000" stroke="none" 
	d="
M234.131866,380.715607 
	C231.503784,381.840851 229.320648,382.965790 225.993973,384.680023 
	C229.189590,377.965271 231.830368,372.416382 234.918442,365.927582 
	C238.001038,372.291534 240.683960,377.830322 243.741867,384.143280 
	C240.197281,382.817535 237.387054,381.766418 234.131866,380.715607 
z"/>
<path fill="#1D1D1D" opacity="1.000000" stroke="none" 
	d="
M171.863922,371.169861 
	C171.863922,369.390503 171.863922,368.087158 171.863922,365.109985 
	C175.810867,366.568359 179.735352,366.994049 181.838531,369.175598 
	C183.122147,370.507050 181.603546,374.540039 181.343536,377.359650 
	C180.918259,377.350250 180.492996,377.340851 180.067719,377.331451 
	C181.184814,379.349060 182.301895,381.366699 183.418976,383.384308 
	C183.052170,383.734772 182.685349,384.085205 182.318542,384.435669 
	C180.202850,382.058777 178.087158,379.681915 175.411377,376.675812 
	C174.769943,379.738678 174.301468,381.975647 173.832993,384.212646 
	C173.176636,384.148163 172.520264,384.083649 171.863907,384.019165 
	C171.863907,379.894745 171.863907,375.770294 171.863922,371.169861 
M176.534286,368.718079 
	C175.613754,370.544006 174.693207,372.369934 173.772659,374.195862 
	C174.335281,374.669189 174.897888,375.142548 175.460495,375.615875 
	C176.978958,374.634827 178.497421,373.653778 180.015869,372.672699 
	C179.136795,371.386902 178.257721,370.101074 176.534286,368.718079 
z"/>
<path fill="#1D1D1D" opacity="1.000000" stroke="none" 
	d="
M350.188202,374.398926 
	C345.510895,378.393829 351.630493,380.551025 350.909729,384.849731 
	C349.374054,383.435944 348.153198,382.536011 347.224274,381.397736 
	C346.159088,380.092529 345.352905,378.575897 343.586090,375.835815 
	C342.819031,379.668365 342.365662,381.933563 341.912292,384.198761 
	C341.439209,384.158081 340.966095,384.117401 340.493011,384.076721 
	C340.493011,378.346954 340.493011,372.617218 340.493011,366.791992 
	C347.980438,365.101898 351.467468,367.537048 350.188202,374.398926 
M347.511261,373.904816 
	C349.248169,369.129395 346.722290,368.526306 342.795135,368.985291 
	C342.795135,371.079590 342.795135,372.955170 342.795135,375.280518 
	C344.422577,374.968597 345.666412,374.730194 347.511261,373.904816 
z"/>
<path fill="#1C1C1C" opacity="1.000000" stroke="none" 
	d="
M195.048035,408.957275 
	C194.034988,410.578888 193.499771,412.203339 192.925735,413.813965 
	C192.507278,414.988068 192.037674,416.143982 191.590881,417.307983 
	C191.163452,417.181488 190.736038,417.054962 190.308609,416.928467 
	C190.308609,411.078827 190.308609,405.229187 190.308609,399.070709 
	C194.912125,400.199677 191.719254,404.053070 193.529190,406.235779 
	C195.024628,406.235779 196.753815,406.235779 198.716812,406.235779 
	C198.878326,403.929016 199.036942,401.663666 199.201752,399.309967 
	C202.196915,400.636139 202.228226,400.637177 201.806091,413.423584 
	C201.763443,414.714966 201.053009,415.984344 200.579636,417.496643 
	C196.859802,414.859833 202.588181,408.743683 195.048035,408.957275 
z"/>
<path fill="#1C1C1C" opacity="1.000000" stroke="none" 
	d="
M158.636810,382.792053 
	C151.675171,385.565948 148.351074,383.537872 148.064758,376.663605 
	C147.922394,373.245422 148.039993,369.816406 148.039993,366.392273 
	C148.526047,366.247192 149.012085,366.102142 149.498138,365.957092 
	C149.988403,366.824463 150.844772,367.668427 150.901993,368.563477 
	C151.092422,371.542908 150.629089,374.607635 151.158081,377.504211 
	C151.439316,379.044128 153.249283,380.304901 154.369232,381.691650 
	C155.548523,380.356445 157.553650,379.129242 157.745239,377.664795 
	C158.232071,373.943634 157.907074,370.116302 157.907074,366.056732 
	C161.782608,367.940308 162.024109,376.441223 158.636810,382.792053 
z"/>
<path fill="#1D1D1D" opacity="1.000000" stroke="none" 
	d="
M325.581757,368.895630 
	C322.836609,372.048218 322.836609,372.048218 328.126038,375.037598 
	C327.228027,375.459503 326.624329,375.832703 325.967682,376.025177 
	C325.368927,376.200653 324.712738,376.180084 323.892883,376.265656 
	C323.892883,377.992523 323.892883,379.566772 323.892883,381.119293 
	C325.912048,381.521942 327.689148,381.876312 329.466278,382.230682 
	C329.445648,382.720764 329.425049,383.210846 329.404419,383.700928 
	C326.680756,383.844269 323.957092,383.987579 321.054535,384.140320 
	C321.054535,378.006073 321.054535,372.272003 321.054535,366.563934 
	C323.663940,366.563934 326.050079,366.563934 328.436218,366.563934 
	C328.547607,366.967499 328.658997,367.371094 328.770386,367.774658 
	C327.848907,368.145386 326.927429,368.516083 325.581757,368.895630 
z"/>
<path fill="#181818" opacity="1.000000" stroke="none" 
	d="
M213.936447,377.216553 
	C212.678940,378.530792 211.739029,379.721771 210.978851,381.018097 
	C210.375763,382.046600 209.992783,383.204163 209.512054,384.304413 
	C209.098709,384.153931 208.685364,384.003448 208.272018,383.852966 
	C208.272018,378.112549 208.272018,372.372131 208.272018,366.341736 
	C212.111877,366.291016 216.222992,365.257538 217.899460,369.664459 
	C219.106415,372.837250 218.334763,375.992432 213.936447,377.216553 
M212.955627,368.926880 
	C212.092484,370.747284 211.229355,372.567688 209.976501,375.209991 
	C216.169785,373.880005 216.517075,372.960083 212.955627,368.926880 
z"/>
<path fill="#232323" opacity="1.000000" stroke="none" 
	d="
M100.048416,372.229065 
	C98.808762,370.256470 97.755844,368.626099 96.702934,366.995728 
	C97.147568,366.599670 97.592201,366.203583 98.036835,365.807526 
	C99.955238,367.914520 101.873642,370.021515 103.873665,372.218140 
	C105.592125,370.173706 107.517021,367.883698 109.441917,365.593658 
	C109.670509,365.821075 109.899101,366.048492 110.127693,366.275909 
	C108.005104,371.987000 105.882515,377.698090 103.586159,383.876709 
	C102.534836,380.329773 101.385002,376.450531 100.048416,372.229065 
z"/>
<path fill="#1C1C1C" opacity="1.000000" stroke="none" 
	d="
M219.761322,407.326141 
	C218.803665,408.360107 217.683121,408.995483 216.144836,409.867706 
	C216.144836,410.884338 216.144836,412.488434 216.144836,414.097809 
	C218.118546,414.517609 219.994141,414.916534 221.869751,415.315491 
	C221.820679,415.735107 221.771606,416.154755 221.722534,416.574371 
	C219.049942,416.574371 216.377350,416.574371 213.343033,416.574371 
	C213.343033,411.241089 213.343033,405.527161 213.343033,399.143494 
	C215.922195,399.306580 218.448853,399.466309 220.975494,399.626038 
	C221.005707,400.164215 221.035919,400.702362 221.066116,401.240509 
	C219.476517,401.575104 217.886917,401.909698 216.290283,402.245758 
	C214.804642,405.640076 216.797989,406.568542 219.761322,407.326141 
z"/>
<path fill="#2F2F2F" opacity="1.000000" stroke="none" 
	d="
M172.287552,412.690094 
	C172.287537,409.072693 172.287537,405.913574 172.287537,402.500671 
	C170.779236,402.097565 169.340515,401.713043 167.658813,401.263611 
	C170.442886,398.438385 176.724304,398.351044 180.265793,401.088959 
	C178.465042,401.600891 176.999664,402.017487 175.203735,402.528076 
	C175.203735,407.186157 175.203735,411.942047 175.203735,416.697937 
	C174.643585,416.879089 174.083435,417.060242 173.523285,417.241394 
	C173.111374,415.877045 172.699478,414.512726 172.287552,412.690094 
z"/>
<path fill="#2F2F2F" opacity="1.000000" stroke="none" 
	d="
M279.044708,366.136047 
	C281.637756,366.302124 283.780060,366.468231 285.922363,366.634338 
	C285.951111,367.090881 285.979889,367.547394 286.008636,368.003937 
	C284.460938,368.519958 282.913269,369.035950 281.013977,369.669159 
	C281.013977,374.318359 281.013977,379.072083 281.013977,383.934814 
	C278.559204,383.014740 278.559204,383.014740 278.190186,369.611908 
	C276.786835,369.134949 275.282867,368.623779 273.778931,368.112610 
	C273.795502,367.613647 273.812103,367.114655 273.828674,366.615692 
	C275.417084,366.455811 277.005524,366.295898 279.044708,366.136047 
z"/>
<path fill="#FDFDFE" opacity="1.000000" stroke="none" 
	d="
M272.190552,157.602936 
	C239.076462,156.237000 206.624908,157.861099 172.740219,164.487061 
	C179.519394,152.424179 185.479218,141.593170 191.742950,130.940872 
	C192.588226,129.503357 194.873398,128.354553 196.640228,128.099319 
	C231.740402,123.028694 266.892029,123.288582 302.078888,127.265686 
	C306.551178,127.771179 309.836823,129.438980 312.044159,133.510590 
	C317.412811,143.413559 322.971344,153.213608 328.567627,163.260086 
	C309.416412,161.334000 291.041077,159.485947 272.190552,157.602936 
z"/>
<path fill="#FAFBFD" opacity="1.000000" stroke="none" 
	d="
M261.204041,212.796295 
	C263.963837,215.686661 266.473297,218.326675 268.973114,220.956573 
	C265.131409,224.899857 262.508209,225.102112 258.820618,221.625778 
	C256.158325,219.116013 253.803452,216.274185 251.081528,213.837296 
	C250.243973,213.087433 248.647980,213.184738 247.399261,212.894150 
	C247.481094,214.073929 247.119843,215.583740 247.714249,216.381683 
	C252.844193,223.268234 252.894135,230.070084 248.133240,237.178680 
	C247.517639,238.097839 248.244751,239.916260 248.349899,241.318130 
	C249.196289,241.467377 250.042679,241.616638 250.889069,241.765900 
	C252.977661,236.558853 255.066254,231.351822 257.134430,226.195709 
	C264.949768,227.584152 270.030853,233.925064 274.896515,240.786804 
	C271.486938,244.232193 268.034637,247.980957 264.258606,251.368881 
	C263.203613,252.315414 261.151978,252.634003 259.628418,252.490097 
	C253.689926,251.929092 248.328079,252.492737 245.953156,257.612671 
	C239.102402,251.664780 232.492065,245.925629 224.882675,239.319092 
	C236.267715,234.058350 232.315811,224.655457 233.359558,216.794937 
	C233.936783,212.447815 242.670120,201.978745 246.894241,201.771027 
	C248.775879,201.678497 251.097519,202.715347 252.581055,203.985336 
	C255.601349,206.570892 258.188232,209.662735 261.204041,212.796295 
z"/>
<path fill="#FAFBFE" opacity="1.000000" stroke="none" 
	d="
M150.338303,214.802277 
	C158.875183,215.621307 166.960007,216.495239 175.064163,217.116608 
	C182.152267,217.660080 183.983765,219.188278 184.791351,226.250214 
	C184.992340,228.007828 184.821365,229.807953 184.821365,232.232117 
	C166.576431,231.101318 148.601837,229.987289 130.338318,228.855362 
	C130.338318,223.154068 130.338318,217.781830 130.338318,212.072540 
	C137.110367,212.998825 143.502502,213.873138 150.338303,214.802277 
z"/>
<path fill="#FAFBFE" opacity="1.000000" stroke="none" 
	d="
M355.021484,229.963287 
	C342.147858,230.715515 329.746429,231.437439 317.192566,232.168228 
	C317.192566,230.069214 317.056915,228.588165 317.214966,227.139160 
	C318.113098,218.904327 319.483337,217.862961 327.638947,217.093796 
	C342.195862,215.720932 356.724548,214.048782 371.631958,212.462723 
	C371.631958,217.688293 371.631958,222.947678 371.631958,228.705124 
	C366.322968,229.109055 360.908356,229.521027 355.021484,229.963287 
z"/>
<path fill="#F7F8FC" opacity="1.000000" stroke="none" 
	d="
M225.783676,187.648926 
	C230.363907,190.331802 234.369263,190.190552 237.671951,186.294754 
	C240.544052,182.906891 240.087234,178.042831 236.419250,174.143448 
	C234.413895,172.011551 231.909180,170.349380 230.028503,168.088181 
	C240.114624,166.357697 248.746872,174.187119 247.710342,183.804337 
	C247.185623,188.672913 246.567215,192.879990 251.866135,195.961212 
	C251.561096,196.331680 251.256073,196.702148 250.951035,197.072632 
	C244.187546,197.335190 237.393570,198.116516 230.668732,197.721344 
	C223.236176,197.284576 215.107880,187.831390 218.075287,178.508408 
	C220.926727,181.940201 223.199829,184.675964 225.783676,187.648926 
z"/>
<path fill="#F6F8FC" opacity="1.000000" stroke="none" 
	d="
M285.815308,236.945435 
	C287.039215,236.265854 288.712952,235.319336 288.820526,235.472549 
	C291.252869,238.936569 294.455505,237.148087 297.443115,236.929062 
	C307.388428,236.200043 315.551392,244.628799 314.103149,255.990051 
	C311.690002,253.180222 310.037231,251.031509 308.154480,249.107941 
	C303.529816,244.383026 298.403625,243.896622 294.575409,247.674881 
	C290.890656,251.311584 291.265533,256.197235 295.553833,260.940430 
	C297.256287,262.823456 298.895050,264.764069 300.845337,267.002777 
	C290.698853,269.356537 281.810730,257.214966 284.005768,248.601318 
	C284.645935,246.089111 284.104187,243.275696 284.104187,240.600342 
	C283.303406,240.259262 282.502655,239.918182 281.701874,239.577103 
	C282.979767,238.781647 284.257690,237.986206 285.815308,236.945435 
z"/>
<path fill="#F9FBFD" opacity="1.000000" stroke="none" 
	d="
M220.032196,254.966217 
	C217.292267,252.037216 214.786240,249.374878 212.124435,246.547058 
	C214.596130,244.088501 216.931213,241.765808 218.512741,240.192688 
	C227.370438,248.102524 236.015076,255.822098 244.669617,263.550537 
	C241.396317,266.729584 238.926849,269.127960 236.108246,271.865417 
	C230.977020,266.478180 225.621552,260.855530 220.032196,254.966217 
z"/>
<path fill="#F7F8FC" opacity="1.000000" stroke="none" 
	d="
M276.862030,236.231903 
	C273.666687,233.666489 273.147034,231.511673 276.464081,228.875046 
	C279.545532,226.425629 282.258636,223.512787 285.097351,220.838394 
	C291.318298,225.719147 291.528625,226.023254 285.973846,230.690720 
	C283.332306,232.910309 282.048615,237.628403 276.862030,236.231903 
z"/>
<path fill="#F7F8FC" opacity="1.000000" stroke="none" 
	d="
M274.386719,208.243591 
	C272.303436,210.189240 270.495331,211.875153 268.125519,214.084839 
	C266.483002,212.205215 264.894775,210.387711 263.295288,208.557343 
	C266.310516,205.296417 269.296783,202.066818 272.164978,198.964890 
	C278.414093,202.874802 278.603241,203.753433 274.386719,208.243591 
z"/>
<path fill="#F6F8FC" opacity="1.000000" stroke="none" 
	d="
M280.773285,211.149139 
	C282.005676,212.505035 282.980408,213.615005 284.526855,215.375946 
	C279.690186,219.948608 275.030396,224.354080 270.370575,228.759552 
	C269.590820,227.968521 268.811066,227.177505 268.031311,226.386490 
	C269.297150,225.861526 270.832214,225.619492 271.758606,224.737869 
	C272.843018,223.705841 273.966675,222.134338 274.009155,220.763885 
	C274.046021,219.575027 272.597778,218.340103 271.409058,216.516830 
	C273.592773,214.556091 275.736023,212.494034 278.059967,210.661133 
	C278.525391,210.294052 279.679260,210.799881 280.773285,211.149139 
z"/>
<path fill="#EDF1F9" opacity="1.000000" stroke="none" 
	d="
M262.121613,203.020142 
	C256.891571,207.060471 257.325317,200.332260 254.464630,199.902100 
	C261.201233,191.209854 262.079620,191.049698 268.222931,198.576920 
	C266.376068,199.918732 264.388794,201.362549 262.121613,203.020142 
z"/>
<path fill="#F2F2F2" opacity="1.000000" stroke="none" 
	d="
M256.203033,343.972351 
	C254.388931,344.691620 252.785751,345.111298 251.005524,345.577301 
	C251.097565,336.287323 254.553711,331.072662 260.626984,331.817322 
	C259.186523,335.870789 257.800262,339.771790 256.203033,343.972351 
z"/>
<path fill="#ECECEC" opacity="1.000000" stroke="none" 
	d="
M131.161301,333.156097 
	C132.698975,332.208282 134.013565,331.574860 135.582153,330.819000 
	C136.178085,338.614990 133.933334,341.251160 127.433609,340.575897 
	C128.654419,338.100739 129.796310,335.785614 131.161301,333.156097 
z"/>
<path fill="#F7F7F7" opacity="1.000000" stroke="none" 
	d="
M276.042480,401.719910 
	C278.287811,403.289185 281.004852,404.551514 281.750092,406.549347 
	C282.882507,409.585144 282.056854,413.400726 278.276855,414.053101 
	C276.100128,414.428772 272.652802,413.196411 271.333771,411.486969 
	C269.162689,408.673309 269.869171,405.150024 272.889130,402.706757 
	C273.598785,402.132660 274.706604,402.050720 276.042480,401.719910 
z"/>
<path fill="#F4F4F4" opacity="1.000000" stroke="none" 
	d="
M133.655289,371.312561 
	C134.142883,372.594025 134.611298,373.543427 134.645309,374.508118 
	C134.760101,377.763062 133.741714,380.887543 130.282181,381.316528 
	C128.265228,381.566620 124.706825,380.355255 124.146484,378.908691 
	C123.218437,376.513062 123.225090,372.737427 124.604317,370.801910 
	C125.627762,369.365662 129.445633,369.852966 132.031937,369.664520 
	C132.465881,369.632874 132.966980,370.523163 133.655289,371.312561 
z"/>
<path fill="#F4F4F4" opacity="1.000000" stroke="none" 
	d="
M389.781372,373.462677 
	C389.629120,379.403564 387.226990,382.274750 383.272430,381.734344 
	C379.779297,381.257019 377.076721,377.659546 378.265381,373.967773 
	C378.909180,371.968292 380.937286,369.694794 382.868134,368.990692 
	C386.123444,367.803650 388.541931,369.800262 389.781372,373.462677 
z"/>
<path fill="#ECECEC" opacity="1.000000" stroke="none" 
	d="
M248.418930,407.469849 
	C248.205704,405.482483 248.205704,403.871979 248.205704,401.992706 
	C250.937958,401.711975 253.740051,401.162323 253.865753,404.719391 
	C253.986954,408.148743 251.350876,408.403961 248.418930,407.469849 
z"/>
<path fill="#ECECEC" opacity="1.000000" stroke="none" 
	d="
M256.898743,368.721100 
	C258.536896,369.903687 259.742737,371.086365 260.948578,372.269012 
	C259.421539,373.446136 257.894531,374.623291 256.367493,375.800415 
	C255.831451,375.394348 255.295410,374.988281 254.759354,374.582214 
	C255.328384,372.628540 255.897415,370.674866 256.898743,368.721100 
z"/>
<path fill="#F7F7F7" opacity="1.000000" stroke="none" 
	d="
M326.445099,401.989136 
	C330.955017,403.332367 331.505524,406.542480 330.792938,410.023224 
	C330.017303,413.811829 327.091278,414.762817 322.932220,414.485901 
	C322.932220,410.923889 322.769958,407.336731 323.071686,403.789001 
	C323.130737,403.094940 324.988129,402.553864 326.445099,401.989136 
z"/>
<path fill="#E6E6E6" opacity="1.000000" stroke="none" 
	d="
M176.956451,368.766663 
	C178.257721,370.101074 179.136795,371.386902 180.015869,372.672729 
	C178.497421,373.653778 176.978958,374.634827 175.460495,375.615875 
	C174.897888,375.142548 174.335281,374.669189 173.772659,374.195862 
	C174.693207,372.369934 175.613754,370.544006 176.956451,368.766663 
z"/>
<path fill="#E6E6E6" opacity="1.000000" stroke="none" 
	d="
M347.210754,374.198303 
	C345.666412,374.730194 344.422577,374.968597 342.795135,375.280518 
	C342.795135,372.955170 342.795135,371.079590 342.795135,368.985291 
	C346.722290,368.526306 349.248169,369.129395 347.210754,374.198303 
z"/>
<path fill="#F2F2F2" opacity="1.000000" stroke="none" 
	d="
M213.357391,368.997925 
	C216.517075,372.960083 216.169785,373.880005 209.976501,375.209991 
	C211.229355,372.567688 212.092484,370.747284 213.357391,368.997925 
z"/>
</svg>